<svg xmlns="http://www.w3.org/2000/svg" viewBox="0 0 60 60">
  <defs>
    <linearGradient id="prefix__clearscope-icon-a" x1="4.339%" x2="70.541%" y1="3.976%" y2="67.252%">
      <stop offset="0%" stop-color="#FFC61A"/>
      <stop offset="35.707%" stop-color="#29A385"/>
      <stop offset="100%" stop-color="#4163C8"/>
    </linearGradient>
  </defs>
  <g fill="none">
    <rect width="60" height="60" fill="url(#prefix__clearscope-icon-a)" rx="10"/>
    <path fill="#FFF" d="M29.466 49.093c-7.26-.956-12.337-5.869-14.166-13.73-.164-.709-.3-3.11-.3-5.322 0-4.803.519-7.15 2.238-10.508 2.074-4.04 5.705-7.014 10.126-8.297 2.839-.819 8.543-.928 11.382-.219 1.61.41 5.595 2.157 5.84 2.566.055.082 0 .9-.136 1.801-.71 4.722-.982 6.442-1.146 6.578-.082.082-.983-.354-2.02-.955-2.347-1.447-4.04-1.965-6.796-2.129-6.25-.41-9.935 3.685-9.935 11 0 4.23.9 6.741 3.084 8.761 2.511 2.32 5.732 3.057 9.471 2.156 1.965-.464 3.166-1.01 5.022-2.183.82-.519 1.583-.846 1.665-.71.137.218.792 4.121 1.147 6.742.136 1.119.136 1.146-1.174 1.992-3.303 2.074-9.335 3.112-14.302 2.457z"/>
  </g>
</svg>